<?xml version="1.0" encoding="utf-8"?>
<!DOCTYPE svg PUBLIC "-//W3C//DTD SVG 1.1//EN" "http://www.w3.org/Graphics/SVG/1.1/DTD/svg11.dtd">
<svg version="1.1" id="Ebene_1" xmlns="http://www.w3.org/2000/svg" xmlns:xlink="http://www.w3.org/1999/xlink" x="0px" y="0px"
	 width="563.39648px" height="277.48584px" viewBox="0 0 563.39648 277.48584" enable-background="new 0 0 563.39648 277.48584"
	 xml:space="preserve">
<g>
	<path fill="#FFFFFF" d="M90.49072,227.55713c-23.77588-3.3457-36.2002-33.86523-18.93359-52.9043
		c18.58398-20.49023,54.1665-6.61328,55.6875,19.49219C128.44189,214.69775,112.08594,230.59424,90.49072,227.55713z"/>
	<g>
		<g>
			<g>
				<path fill-rule="evenodd" clip-rule="evenodd" fill="#AECB50" d="M318.80957,123.97705
					c-40.24805,16.75781-98.76367,31.44141-162.60742,28.40137c-27.125-1.29199-53.34863-2.24316-64.04102-19.49121
					c-8.82715-14.23828-5.65186-42.43945-1.67041-57.35742c-0.10596,0.45117-0.55859,0.55469-0.55713,1.11328
					c-17.45801,29.04883-45.34863,67.64648-41.76562,114.16016c5.61133,72.83984,125.61914,53.72266,178.75684,35.08203
					c23.39209-8.20508,46.3457-19.45898,64.04102-34.52539C307.81445,177.01221,325.80957,154.49756,318.80957,123.97705z
					 M90.49072,227.55713c-23.77588-3.3457-36.2002-33.86523-18.93359-52.9043c18.58398-20.49023,54.1665-6.61328,55.6875,19.49219
					C128.44189,214.69775,112.08594,230.59424,90.49072,227.55713z"/>
			</g>
		</g>
	</g>
</g>
<path fill="#93999E" d="M168.854,47.42236h-25.50049V115.354h-10.25293V47.42236h-25.29053v-9.14941H168.854V47.42236z"/>
<path fill="#93999E" d="M210.07617,116.66846c-8.93848,0-15.625-1.73535-20.05908-5.20508
	c-4.43457-3.4707-7.23877-7.55371-8.4126-12.25098c-1.1748-4.69727-1.76123-10.14746-1.76123-16.35254V38.27295h10.2002v44.42969
	c0,10.12988,1.69971,16.79102,5.1001,19.97949c3.39941,3.19043,8.37744,4.78516,14.93262,4.78516
	c6.5542,0,11.53174-1.59473,14.93213-4.78516c3.3999-3.18848,5.10059-9.84961,5.10059-19.97949V38.27295h10.25293v44.58691
	c0,9.3252-1.11328,16.19434-3.33887,20.61133c-2.22656,4.41699-5.58252,7.7207-10.06885,9.91113
	C222.4668,115.57275,216.84082,116.66846,210.07617,116.66846z"/>
<path fill="#AECB50" d="M289.89062,116.66846c-10.90137,0-19.60352-3.58398-26.10547-10.75195
	c-6.50244-7.16797-9.75342-16.86914-9.75342-29.10254s3.25098-21.93359,9.75342-29.10254
	c6.50195-7.16797,15.2041-10.75293,26.10547-10.75293c8.37793,0,15.51074,2.26074,21.39941,6.7832
	c5.88965,4.52148,9.20215,10.48145,9.9375,17.87695h-10.51562c-0.4209-4.87207-2.53223-8.74609-6.33594-11.62012
	s-8.59668-4.31152-14.37988-4.31152c-7.81738,0-14.00391,2.69043-18.56055,8.07031
	c-4.55664,5.38184-6.83496,13.06641-6.83496,23.05664c0,9.95508,2.26074,17.63184,6.78223,23.0293
	c4.52246,5.39844,10.65527,8.09668,18.40332,8.09668c6.02832,0,10.90039-1.47168,14.61621-4.41602
	c3.71484-2.94434,5.81836-7.15137,6.30957-12.61914h10.51562c-0.73535,8.20215-3.96094,14.54688-9.67383,19.0332
	C305.83984,114.42529,298.61914,116.66846,289.89062,116.66846z"/>
<path fill="#AECB50" d="M369.39062,109.62256c-5.04785,4.69824-11.5498,7.0459-19.50684,7.0459
	c-5.53906,0-10.09473-1.49805-13.6709-4.49512c-3.5752-2.99707-5.3623-6.8623-5.3623-11.59375
	c0-13.04004,11.2334-19.55957,33.70312-19.55957h4.83691c0-3.99609-0.20996-6.89648-0.63086-8.70215
	c-0.4209-1.80469-1.5957-3.30273-3.52246-4.49512c-1.92871-1.19141-4.99512-1.78809-9.20215-1.78809
	c-8.83301,0-13.38965,3.15527-13.66992,9.46484h-9.88477c0.73535-11.46289,8.7627-17.19336,24.08105-17.19336
	c7.15039,0,12.72363,1.41895,16.71973,4.25879c3.99609,2.83887,5.99414,8.41211,5.99414,16.71973V115.354h-9.88477V109.62256z
	 M369.39062,100.68408V88.32861h-6.7832c-14.37207,0-21.55664,3.90918-21.55664,11.72461c0,2.83984,1.05176,5.02148,3.1543,6.5459
	c2.10352,1.52539,4.94238,2.28809,8.51758,2.28809c3.26074,0,6.41504-0.73633,9.46484-2.20898
	C365.2373,105.20654,367.6377,103.2085,369.39062,100.68408z"/>
<path fill="#AECB50" d="M455.77832,115.354h-10.46387l-40.37988-60.83398V115.354h-9.6748V38.27295h10.41016l40.38086,60.83398
	V38.27295h9.72754V115.354z"/>
<path fill="#AECB50" d="M481.75098,48.99951c0,4.62695-0.91113,8.31641-2.7334,11.06738
	c-1.82324,2.75293-4.50488,4.12793-8.04492,4.12793v-5.04785c3.50488,0,5.25781-3.38184,5.25781-10.14746h-5.25781V38.27295
	h10.77832V48.99951z"/>
<path fill="#AECB50" d="M517.29492,115.45947c-2.17383,0.41992-4.53906,0.63086-7.09766,0.63086
	c-4.06641,0-7.0459-0.72852-8.93848-2.18262s-3.06738-3.32031-3.52246-5.59961c-0.45605-2.27832-0.68359-5.37988-0.68359-9.30664
	V67.34912h-6.88867v-7.78125h6.88867V45.68701h9.88477v13.88086h9.04297v7.78125h-9.04297v32.17871
	c0,3.82129,0.48145,6.24902,1.44531,7.28223c0.96387,1.03418,2.28711,1.55078,3.96973,1.55078
	c1.71777,0,3.36523-0.13965,4.94238-0.4209V115.45947z"/>
<polygon fill="#93999E" points="114.82861,210.38916 109.42871,215.78955 95.40283,201.76416 81.37793,215.78955 
	75.97852,210.38916 90.00293,196.36572 75.97803,182.33838 81.37793,176.93799 95.40283,190.96533 109.42871,176.93896 
	114.82861,182.33838 100.80322,196.36572 "/>
</svg>
